<?xml version="1.0" encoding="utf-8"?>
<!-- Generator: Adobe Illustrator 23.0.6, SVG Export Plug-In . SVG Version: 6.00 Build 0)  -->
<svg version="1.1" id="Capa_1" xmlns="http://www.w3.org/2000/svg" xmlns:xlink="http://www.w3.org/1999/xlink" x="0px" y="0px"
	 viewBox="0 0 368 368" style="enable-background:new 0 0 368 368;" xml:space="preserve">
<style type="text/css">
	.st0{fill:#FFFFFF;}
</style>
<g>
	<g>
		<path class="st0" d="M296,0h-32c-13.2,0-24,10.8-24,24v96c0,4.4-3.6,8-8,8h-96c-4.4,0-8-3.6-8-8V24c0-13.2-10.8-24-24-24H72
			C58.8,0,48,10.8,48,24v320c0,13.2,10.8,24,24,24h224c13.2,0,24-10.8,24-24V24C320,10.8,309.2,0,296,0z M304,304h-40
			c-4.4,0-8,3.6-8,8s3.6,8,8,8h40v24c0,4.4-3.6,8-8,8H72c-4.4,0-8-3.6-8-8v-24h152c4.4,0,8-3.6,8-8s-3.6-8-8-8H64V24
			c0-4.4,3.6-8,8-8h32c4.4,0,8,3.6,8,8v96c0,13.2,10.8,24,24,24h96c13.2,0,24-10.8,24-24V24c0-4.4,3.6-8,8-8h32c4.4,0,8,3.6,8,8V304
			z"/>
	</g>
</g>
</svg>
