<?xml version="1.0" encoding="utf-8"?>
<!-- Generator: Adobe Illustrator 23.0.6, SVG Export Plug-In . SVG Version: 6.00 Build 0)  -->
<svg version="1.1" id="Layer_1" xmlns="http://www.w3.org/2000/svg" xmlns:xlink="http://www.w3.org/1999/xlink" x="0px" y="0px"
	 viewBox="0 0 798 613.8" style="enable-background:new 0 0 798 613.8;" xml:space="preserve">
<style type="text/css">
	.st0{fill:#FFFFFF;}
</style>
<g id="surface1">
	<path class="st0" d="M728.9,0H69.1C31,0,0,31,0,69.1V353c0,0.8,0,1.5,0.1,2.3c0,0.4,0.1,0.8,0.2,1.2c0,0.3,0.1,0.7,0.2,1
		c0.1,0.5,0.2,1,0.4,1.4c0.1,0.2,0.1,0.5,0.2,0.7c0.1,0.5,0.3,1,0.5,1.4c0.1,0.2,0.2,0.4,0.2,0.7c0.2,0.5,0.4,0.9,0.6,1.3
		c0.1,0.2,0.2,0.5,0.3,0.7c0.2,0.4,0.4,0.8,0.7,1.2c0.2,0.3,0.3,0.5,0.5,0.8c0.2,0.3,0.5,0.7,0.7,1c0.2,0.3,0.4,0.5,0.6,0.8
		c0.2,0.3,0.5,0.6,0.8,0.9c0.2,0.2,0.4,0.4,0.6,0.7l230.2,237.9c0,0,0.1,0.1,0.1,0.1c0.3,0.3,0.6,0.6,1,0.9c0.2,0.2,0.4,0.4,0.7,0.6
		c0.4,0.3,0.8,0.6,1.2,0.9c0.2,0.1,0.4,0.3,0.6,0.4c3.7,2.5,8.1,4,13,4h291.6c4.8,0,9.3-1.5,13-4c0.2-0.1,0.4-0.3,0.6-0.4
		c0.4-0.3,0.8-0.6,1.2-0.9c0.2-0.2,0.5-0.4,0.7-0.6c0.3-0.3,0.7-0.6,1-0.9c0,0,0.1-0.1,0.1-0.1L791.5,369c0.2-0.2,0.4-0.4,0.6-0.7
		c0.3-0.3,0.5-0.6,0.8-0.9c0.2-0.3,0.4-0.5,0.6-0.8c0.2-0.3,0.5-0.7,0.7-1c0.2-0.2,0.3-0.5,0.5-0.8c0.2-0.4,0.5-0.8,0.7-1.2
		c0.1-0.2,0.2-0.5,0.3-0.7c0.2-0.4,0.4-0.9,0.6-1.3c0.1-0.2,0.2-0.4,0.2-0.7c0.2-0.5,0.4-0.9,0.5-1.4c0.1-0.2,0.1-0.5,0.2-0.7
		c0.1-0.5,0.3-1,0.4-1.4c0.1-0.3,0.1-0.7,0.2-1c0.1-0.4,0.1-0.8,0.2-1.2c0.1-0.8,0.1-1.5,0.1-2.3V69.1C798,31,767,0,728.9,0z
		 M590.8,214.8c-12.7,0-23-10.3-23-23v-15.3c0-12.7,10.3-23,23-23h23v61.4H590.8z M659.9,153.5H752v61.4h-92.1V153.5z M69.1,46
		h659.9c12.7,0,23,10.3,23,23v38.4H590.8c-38.1,0-69.1,31-69.1,69.1v15.3c0,38.1,31,69.1,69.1,69.1H752v69.1H636.9
		c-63.5,0-115.1,51.6-115.1,115.1v122.8H276.2V445c0-63.5-51.6-115.1-115.1-115.1H46v-69.1h161.1c38.1,0,69.1-31,69.1-69.1v-15.3
		c0-38.1-31-69.1-69.1-69.1H46V69.1C46,56.4,56.4,46,69.1,46z M720.7,376l-152.9,158V445c0-38.1,31-69.1,69.1-69.1H720.7z
		 M230.2,533.9L77.3,376h83.8c38.1,0,69.1,31,69.1,69.1V533.9z M46,153.5h92.1v61.4H46V153.5z M207.2,153.5c12.7,0,23,10.3,23,23
		v15.3c0,12.7-10.3,23-23,23h-23v-61.4H207.2z"/>
</g>
</svg>
