<?xml version="1.0" encoding="utf-8"?>
<!-- Generator: Adobe Illustrator 23.0.6, SVG Export Plug-In . SVG Version: 6.00 Build 0)  -->
<svg version="1.1" id="Layer_1" xmlns="http://www.w3.org/2000/svg" xmlns:xlink="http://www.w3.org/1999/xlink" x="0px" y="0px"
	 viewBox="0 0 512 512" style="enable-background:new 0 0 512 512;" xml:space="preserve">
<style type="text/css">
	.st0{fill:#FFFFFF;}
</style>
<g>
	<g>
		<path class="st0" d="M512,120.7L391.3,0l-90.5,90.5l-7.5-7.5L30.2,346.1L0,376.3L135.7,512l30.2-30.2L429,218.7l-7.5-7.5
			L512,120.7z M391.3,30.2l57.2,57.2h-4.4c-2.7,0-5.5,1-7.5,3.1c-2.1,2.1-3.1,4.8-3.1,7.5v19.5H414c-2.7,0-5.5,1-7.5,3.1
			c-2.1,2.1-3.1,4.8-3.1,7.5v19.5h-19.5c-2.7,0-5.5,1-7.5,3.1c-2.1,2.1-3.1,4.8-3.1,7.5v4.4l-57.2-57.2L391.3,30.2z M135.7,481.8
			l-19.9-19.9c4.2-4.2,4.2-10.9,0-15.1c-4.2-4.2-10.9-4.2-15.1,0l-15.1-15.1c4.2-4.2,4.2-10.9,0-15.1c-4.2-4.2-10.9-4.2-15.1,0
			l-15.1-15.1c4.2-4.2,4.2-10.9,0-15.1c-4.2-4.2-10.9-4.2-15.1,0l-10.2-10.2l15.1-15.1l105.6,105.6L135.7,481.8z M165.9,451.7
			L60.3,346.1l233-233l105.6,105.6L165.9,451.7z M394.5,184.1V169H414c2.7,0,5.5-1,7.5-3.1c2.1-2.1,3.1-4.8,3.1-7.5v-19.5h19.5v0
			c2.7,0,5.5-1,7.5-3.1c2.1-2.1,3.1-4.8,3.1-7.5v-19.5h15.1l12,12l-75.4,75.4L394.5,184.1z"/>
	</g>
</g>
<g>
	<g>
		<path class="st0" d="M304.3,182.9c-4.2-4.2-10.9-4.2-15.1,0L130.9,341.2c-4.2,4.2-4.2,10.9,0,15.1c4.2,4.2,10.9,4.2,15.1,0
			L304.3,198C308.5,193.8,308.5,187,304.3,182.9z"/>
	</g>
</g>
<g>
	<g>
		<path class="st0" d="M304.3,243.2c-4.2-4.2-10.9-4.2-15.1,0l-98,98c-4.2,4.2-4.2,10.9,0,15.1c4.2,4.2,10.9,4.2,15.1,0l98-98
			C308.5,254.1,308.5,247.4,304.3,243.2z"/>
	</g>
</g>
</svg>
