<?xml version="1.0" encoding="utf-8"?>
<!-- Generator: Adobe Illustrator 23.0.6, SVG Export Plug-In . SVG Version: 6.00 Build 0)  -->
<svg version="1.1" id="Capa_1" xmlns="http://www.w3.org/2000/svg" xmlns:xlink="http://www.w3.org/1999/xlink" x="0px" y="0px"
	 viewBox="0 0 447.1 447.1" style="enable-background:new 0 0 447.1 447.1;" xml:space="preserve">
<style type="text/css">
	.st0{fill:#FFFFFF;}
</style>
<path class="st0" d="M442.7,163.6L283.9,4.8c-4.1-4.2-12-7.5-25.7,0.2c-6.6,3.7-14.1,9.6-21.3,16.8c0,0,0,0,0,0c0,0,0,0,0,0
	c0,0,0,0,0,0c-7.2,7.2-13.1,14.7-16.8,21.3c-7.7,13.7-4.3,21.5-0.2,25.7l31.6,31.6c-5.2,9.1-6.8,20.6-4.4,33.1
	c1.1,5.6,2.9,11.3,5.5,16.8l-47.8,47.8c-3.3-0.8-6.8,0.1-9.4,2.7l-56.5,56.5c0,0,0,0,0,0c0,0,0,0,0,0L10.5,385.8
	C3.7,392.5,0,401.5,0,411s3.7,18.5,10.5,25.3c7,7,16.1,10.4,25.3,10.4S54,443.3,61,436.3l156.7-156.7c0,0,0,0,0,0c0,0,0,0,0,0
	l28.2-28.2c1.9-1.9,2.9-4.4,2.9-7.1c0-0.8-0.1-1.5-0.3-2.3l47.5-47.5c5.8,2.8,11.8,4.8,17.8,6c12.6,2.4,24,0.8,33.1-4.4l31.6,31.6
	c4.2,4.2,12,7.5,25.7-0.2c6.6-3.7,14.2-9.6,21.3-16.8C435.3,201,456.2,177.1,442.7,163.6z M46.8,422.2c-6.1,6.1-16.1,6.1-22.2,0
	c-3-3-4.6-6.9-4.6-11.1s1.6-8.1,4.6-11.1l93.1-93.1l22.2,22.2L46.8,422.2z M154,314.9l-22.2-22.2l14.1-14.1l22.2,22.2L154,314.9z
	 M182.3,286.6l-22.2-22.2l14.1-14.1l22.2,22.2L182.3,286.6z M210.6,258.4l-22.2-22.2l14.1-14.1l22.2,22.2L210.6,258.4z M235.6,226.7
	L220,211.2l43.3-43.3c2.3,3,4.9,5.9,7.7,8.6c2.5,2.5,5.1,4.8,7.8,7L235.6,226.7z M317.7,180.8c-5.9-1.1-12-3.5-17.7-6.9
	c-0.3-0.2-0.7-0.5-1.1-0.6c-4.8-2.9-9.5-6.6-13.7-10.9c-14.7-14.7-21.7-33.7-18.4-46.7l65.1,65.1C326.6,182,321.2,181.4,317.7,180.8
	z M391,211.6l-35.9-35.9c0,0,0,0,0,0c0,0,0,0,0,0L235.8,56.4c0.9-2.4,3.4-7.1,8.4-13.1l159.9,159.9
	C398.1,208.2,393.5,210.8,391,211.6z M418.3,189.1L258.4,29.2c6.1-5,10.7-7.6,13.1-8.4l155.2,155.2
	C425.9,178.4,423.4,183,418.3,189.1z"/>
</svg>
