<?xml version="1.0" encoding="utf-8"?>
<!-- Generator: Adobe Illustrator 23.0.6, SVG Export Plug-In . SVG Version: 6.00 Build 0)  -->
<svg version="1.1" id="Capa_1" xmlns="http://www.w3.org/2000/svg" xmlns:xlink="http://www.w3.org/1999/xlink" x="0px" y="0px"
	 viewBox="0 0 512 512" style="enable-background:new 0 0 512 512;" xml:space="preserve">
<style type="text/css">
	.st0{fill:#FFFFFF;}
</style>
<g>
	<g>
		<path class="st0" d="M476.8,292.3H59.9c-33,0-59.9,26.9-59.9,59.9s26.9,59.9,59.9,59.9h416.9c19.4,0,35.2-15.8,35.2-35.2v-49.3
			C512,308.1,496.2,292.3,476.8,292.3z M405.8,382.1H59.9c-16.5,0-29.9-13.4-29.9-29.9s13.4-29.9,29.9-29.9h345.9L405.8,382.1
			L405.8,382.1z M482,376.9c0,2.9-2.3,5.2-5.2,5.2h-40.9v-59.8h40.9c2.9,0,5.2,2.3,5.2,5.2V376.9z"/>
	</g>
</g>
<g>
	<g>
		<path class="st0" d="M398.9,159.9l-146.4,0c-24.8,0-45-20.2-45-45c0-8.3-6.7-15-15-15c-8.3,0-15,6.7-15,15c0,41.4,33.7,75,75,75
			l146.4,0c24.8,0,45,20.2,45,45v23c0,8.3,6.7,15,15,15c8.3,0,15-6.7,15-15v-23C474,193.6,440.3,159.9,398.9,159.9z"/>
	</g>
</g>
</svg>
