<?xml version="1.0" encoding="utf-8"?>
<!-- Generator: Adobe Illustrator 23.0.6, SVG Export Plug-In . SVG Version: 6.00 Build 0)  -->
<svg version="1.1" id="Capa_1" xmlns="http://www.w3.org/2000/svg" xmlns:xlink="http://www.w3.org/1999/xlink" x="0px" y="0px"
	 viewBox="0 0 461.9 461.9" style="enable-background:new 0 0 461.9 461.9;" xml:space="preserve">
<style type="text/css">
	.st0{fill:#FFFFFF;}
</style>
<path class="st0" d="M412.6,90.8c-5.1-5.1-12-8-19.3-8c-3.8,0-7.5,0.8-10.8,2.2l-28.6-28.6c3.5-15-0.5-31.4-12.2-43.1h0
	c-11.1-11.1-27-15.7-42.3-12.4c-2.7,0.6-5,2.3-6.4,4.6c-1.4,2.4-1.8,5.2-1.1,7.8c2.5,9,0,18.7-6.6,25.3l-73.8,73.8
	c-8.7,8.7-13.4,20.2-13.4,32.4c0,12.3,4.8,23.8,13.4,32.4c11.1,11.1,26.9,15.7,42.3,12.4c2.7-0.6,5-2.3,6.4-4.6
	c0.8-1.3,1.3-2.8,1.4-4.3l11.2,11.2L49.4,415.5c-5.1,5.1-8,12-8,19.3c0,7.3,2.8,14.1,8,19.3c5.3,5.3,12.3,8,19.3,8s13.9-2.7,19.3-8
	l324.7-324.7c5.1-5.1,8-12,8-19.3C420.5,102.8,417.7,95.9,412.6,90.8z M341.7,78.3c1-1,1.9-2,2.7-3L367,97.9l-9.4,9.4l-22.4-22.4
	L341.7,78.3z M311.6,108.5L321,99l22.4,22.4l-9.4,9.4L311.6,108.5z M319.9,145l-9.4,9.4L288,132l9.4-9.4L319.9,145z M253.7,138
	c-4.5,4.5-8,9.9-10.2,15.6c-0.2,0.4-0.4,0.8-0.5,1.3c-1.8,5.1-2.7,10.4-2.7,15.8c-5.5-0.8-10.7-3.3-14.7-7.3
	c-4.9-4.9-7.6-11.4-7.6-18.3c0-6.9,2.7-13.4,7.6-18.3L299.4,53c8.8-8.8,13.5-20.6,13.4-32.7c5.5,0.8,10.7,3.3,14.7,7.3
	c10.1,10.1,10.1,26.5,0,36.6l-37.1,37.1c0,0-0.1,0.1-0.1,0.1c0,0-0.1,0.1-0.1,0.1L253.7,138z M264.8,155.9c0.9-1.3,1.9-2.6,3.1-3.7
	l6-6l22.4,22.4l-9.4,9.4L264.8,155.9z M398.4,115.2L73.7,439.8c-2.8,2.8-7.4,2.8-10.2,0c-2.8-2.8-2.8-7.4,0-10.2l277.5-277.5
	c0,0,0,0,0,0c0,0,0,0,0,0l47.1-47.1c2.8-2.8,7.4-2.8,10.2,0c1.4,1.4,2.1,3.2,2.1,5.1C400.5,112,399.8,113.8,398.4,115.2z"/>
</svg>
