<?xml version="1.0" encoding="utf-8"?>
<!-- Generator: Adobe Illustrator 23.0.6, SVG Export Plug-In . SVG Version: 6.00 Build 0)  -->
<svg version="1.1" id="Capa_1" xmlns="http://www.w3.org/2000/svg" xmlns:xlink="http://www.w3.org/1999/xlink" x="0px" y="0px"
	 viewBox="0 0 223.9 512" style="enable-background:new 0 0 223.9 512;" xml:space="preserve">
<style type="text/css">
	.st0{fill:#FFFFFF;}
	.st1{fill:none;stroke:#FFFFFF;stroke-miterlimit:10;}
</style>
<g>
	<g id="XMLID_1_">
		<g>
			<path class="st0" d="M71.1,40h81.2V15H71.1V40z M223.5,148.6v74.7c0,12.6-5.7,23.8-14.9,31.1c9.1,6.5,15.3,17.1,15.3,29.1
				c0,11.4-5.4,21.6-13.8,28.1c8.4,6.6,13.7,16.7,13.7,28.1c0,12-6.1,22.6-15.2,29c9.1,7.3,14.8,18.5,14.8,31.1v64.1
				c0,21.8-17.3,40.1-39.1,40.1h-40.1v-0.7c-6.6,5.1-15,8.7-24,8.7h-16c-9,0-17.3-3.6-24-8.7v0.7H40.1C18.3,504,0,485.7,0,463.9
				v-64.1c0-12.6,6.1-23.8,15.3-30.9c-9.2-6.5-14.9-17.1-14.9-29.1c0-11.4,5.3-21.6,13.7-28.1C5.8,305.1,0.3,295,0.3,283.6
				c0-12,5.9-22.7,15-29.1C6.2,247.2,0,236,0,223.4v-74.7l72.9-93.6H56.1V0h111.3v55h-15.8L223.5,148.6z M208.5,223.6v-64.1H15.1
				v64.1c0,13.5,11.5,25,25,25h80.2v15H36.1c-11.3,0-20.5,9.2-20.5,20.5c0,11.3,9.2,20.5,20.5,20.5h84.2v15H36.1
				c-11.3,0-20.5,9.2-20.5,20.5c0,11.3,9.2,20.5,20.5,20.5h84.2v15H40.1c-13.5,0-25,10.5-25,24v64.1c0,13.5,11.5,25,25,25h28.3
				c-2.3-6-3.6-11.1-3.6-17h15c0,13.5,11,25,24.5,25h16c13.5,0,24.5-11.5,24.5-25h15c0,5.9-1.3,11-3.6,17h28.2c13.5,0,24-11.5,24-25
				v-64.1c0-13.5-10.5-24-24-24h-16v-15h20c11.3,0,20.5-9.2,20.5-20.5c0-11.3-9.2-20.5-20.5-20.5h-19.9v-15h20
				c11.3,0,20.5-9.2,20.5-20.5c0-11.3-9.2-20.5-20.5-20.5h-20v-15h16C198,248.6,208.5,237.1,208.5,223.6z M201.2,144.3l-68.6-89.2
				H91.9l-68.6,89.2H201.2z"/>
			<path class="st0" d="M208.5,159.5v64.1c0,13.5-10.5,25-24,25h-16v15h20c11.3,0,20.5,9.2,20.5,20.5c0,11.3-9.2,20.5-20.5,20.5h-20
				v15h19.9c11.3,0,20.5,9.2,20.5,20.5c0,11.3-9.2,20.5-20.5,20.5h-20v15h16c13.5,0,24,10.5,24,24v64.1c0,13.5-10.5,25-24,25h-28.2
				c2.3-6,3.6-11.1,3.6-17h-15c0,13.5-11,25-24.5,25h-16c-13.5,0-24.5-11.5-24.5-25h-15c0,5.9,1.3,11,3.6,17H40.1
				c-13.5,0-25-11.5-25-25v-64.1c0-13.5,11.5-24,25-24h80.2v-15H36.1c-11.3,0-20.5-9.2-20.5-20.5c0-11.3,9.2-20.5,20.5-20.5h84.2
				v-15H36.1c-11.3,0-20.5-9.2-20.5-20.5c0-11.3,9.2-20.5,20.5-20.5h84.2v-15H40.1c-13.5,0-25-11.5-25-25v-64.1H208.5z"/>
			<polygon class="st0" points="132.6,55.1 201.2,144.3 23.3,144.3 91.9,55.1 			"/>
			<rect x="71.1" y="15" class="st0" width="81.2" height="25"/>
		</g>
		<g>
			<path class="st1" d="M223.8,339.7c0-11.4-5.3-21.5-13.7-28.1c8.4-6.5,13.8-16.7,13.8-28.1c0-12-6.2-22.6-15.3-29.1
				c9.2-7.3,14.9-18.5,14.9-31.1v-74.7L151.6,55h15.8V0H56.1v55.1h16.8L0,148.7v74.7c0,12.6,6.2,23.8,15.3,31.1
				c-9.1,6.4-15,17.1-15,29.1c0,11.4,5.5,21.5,13.8,28.1c-8.4,6.5-13.7,16.7-13.7,28.1c0,12,5.7,22.6,14.9,29.1
				C6.1,376,0,387.2,0,399.8v64.1C0,485.7,18.3,504,40.1,504h40.1v-0.7c6.7,5.1,15,8.7,24,8.7h16c9,0,17.4-3.6,24-8.7v0.7h40.1
				c21.8,0,39.1-18.3,39.1-40.1v-64.1c0-12.6-5.7-23.8-14.8-31.1C217.7,362.3,223.8,351.7,223.8,339.7z"/>
			<rect x="71.1" y="15" class="st1" width="81.2" height="25"/>
			<line class="st1" x1="71.1" y1="40" x2="71.1" y2="40.1"/>
			<polygon class="st1" points="91.9,55.1 132.6,55.1 201.2,144.3 23.3,144.3 			"/>
			<path class="st1" d="M188.4,319.6c11.3,0,20.5,9.2,20.5,20.5c0,11.3-9.2,20.5-20.5,20.5h-20v15h16c13.5,0,24,10.5,24,24v64.1
				c0,13.5-10.5,25-24,25h-28.2c2.3-6,3.6-11.1,3.6-17h-15c0,13.5-11,25-24.5,25h-16c-13.5,0-24.5-11.5-24.5-25h-15
				c0,5.9,1.3,11,3.6,17H40.1c-13.5,0-25-11.5-25-25v-64.1c0-13.5,11.5-24,25-24h80.2v-15H36.1c-11.3,0-20.5-9.2-20.5-20.5
				c0-11.3,9.2-20.5,20.5-20.5h84.2v-15H36.1c-11.3,0-20.5-9.2-20.5-20.5c0-11.3,9.2-20.5,20.5-20.5h84.2v-15H40.1
				c-13.5,0-25-11.5-25-25v-64.1h193.4v64.1c0,13.5-10.5,25-24,25h-16v15h20c11.3,0,20.5,9.2,20.5,20.5c0,11.3-9.2,20.5-20.5,20.5
				h-20v15H188.4z"/>
		</g>
	</g>
</g>
<g>
	<g>
		<rect x="56.1" y="112.2" class="st0" width="16" height="15"/>
	</g>
</g>
<g>
	<g>
		<rect x="72.1" y="96.2" class="st0" width="16" height="15"/>
	</g>
</g>
<g>
	<g>
		<rect x="136.3" y="304.6" class="st0" width="16" height="15"/>
	</g>
</g>
<g>
	<g>
		<rect x="136.3" y="248.5" class="st0" width="16" height="15"/>
	</g>
</g>
<g>
	<g>
		<rect x="136.3" y="360.7" class="st0" width="16" height="15"/>
	</g>
</g>
</svg>
