<?xml version="1.0" encoding="utf-8"?>
<!-- Generator: Adobe Illustrator 23.0.6, SVG Export Plug-In . SVG Version: 6.00 Build 0)  -->
<svg version="1.1" id="Capa_1" xmlns="http://www.w3.org/2000/svg" xmlns:xlink="http://www.w3.org/1999/xlink" x="0px" y="0px"
	 viewBox="0 0 223.9 512" style="enable-background:new 0 0 223.9 512;" xml:space="preserve">
<style type="text/css">
	.st0{fill:#FFFFFF;}
</style>
<g>
	<g id="XMLID_1_">
		<g>
			<path class="st0" d="M223.4,399.8v64.1c0,21.8-17.2,40.1-39.1,40.1h-40.1v-0.7c-6.7,5.1-15,8.7-24.1,8.7h-16
				c-9,0-17.4-3.5-24.1-8.7v0.7H40.1C18.3,504,0,485.7,0,463.9v-64.1c0-12.6,6.1-23.8,15.3-31.1c-9.1-6.4-14.9-17.1-14.9-29
				c0-11.4,5.3-21.5,13.7-28.1c-8.4-6.5-13.8-16.7-13.8-28c0-12,5.8-22.6,15-29.1C6.2,247.2,0,236,0,223.4v-74.7l72.9-93.6H56.1V0
				h111.2v55.1h-15.8l71.9,93.6v74.7c0,12.6-5.7,23.8-14.9,31.1c9.1,6.4,15.3,17.1,15.3,29c0,11.4-5.4,21.5-13.8,28.1
				c8.4,6.5,13.7,16.7,13.7,28.1c0,12-6.1,22.6-15.2,29.1C217.8,376,223.4,387.2,223.4,399.8z M208.4,463.9v-64.1
				c0-13.5-10.5-24-24-24h-16v-15h20c11.3,0,20.5-9.2,20.5-20.5c0-11.3-9.2-20.5-20.5-20.5h-20v-15h20c11.3,0,20.5-9.2,20.5-20.6
				c0-11.3-9.2-20.5-20.5-20.5h-20v-15h16c13.5,0,24-11.5,24-25.1v-64.1H15v64.1c0,13.5,11.5,25.1,25,25.1h80.2v15H36.1
				c-11.3,0-20.5,9.2-20.5,20.5c0,11.3,9.2,20.6,20.5,20.6h84.2v15H36.1c-11.3,0-20.5,9.2-20.5,20.5c0,11.3,9.2,20.5,20.5,20.5h84.2
				v15H40.1c-13.5,0-25,10.5-25,24v64.1c0,13.5,11.5,25.1,25,25.1h28.2c-2.3-6-3.6-11.1-3.6-17h15c0,13.5,11,25,24.6,25h16
				c13.5,0,24.6-11.5,24.6-25h15c0,5.9-1.3,11-3.6,17h28.2C197.9,489,208.4,477.4,208.4,463.9z M201.2,144.3l-68.6-89.2H91.9
				l-68.6,89.2H201.2z M152.3,40.1V15H71.1v25.1H152.3z"/>
			<path class="st0" d="M208.4,399.8v64.1c0,13.5-10.5,25.1-24,25.1h-28.2c2.3-6,3.6-11.1,3.6-17h-15c0,13.5-11,25-24.6,25h-16
				c-13.5,0-24.6-11.5-24.6-25h-15c0,5.9,1.3,11,3.6,17H40.1c-13.5,0-25-11.5-25-25.1v-64.1c0-13.5,11.5-24,25-24h80.2v-15H36.1
				c-11.3,0-20.5-9.2-20.5-20.5c0-11.3,9.2-20.5,20.5-20.5h84.2v-15H36.1c-11.3,0-20.5-9.2-20.5-20.6c0-11.3,9.2-20.5,20.5-20.5
				h84.2v-15H40.1c-13.5,0-25-11.5-25-25.1v-64.1h193.4v64.1c0,13.5-10.5,25.1-24,25.1h-16v15h20c11.3,0,20.5,9.2,20.5,20.5
				c0,11.3-9.2,20.6-20.5,20.6h-20v15h20c11.3,0,20.5,9.2,20.5,20.5c0,11.3-9.2,20.5-20.5,20.5h-20v15h16
				C197.9,375.7,208.4,386.2,208.4,399.8z"/>
			<polygon class="st0" points="132.6,55.1 201.2,144.3 23.3,144.3 91.9,55.1 			"/>
			<rect x="71.1" y="15" class="st0" width="81.2" height="25"/>
		</g>
		<g>
		</g>
	</g>
</g>
<g>
	<g>
		<rect x="56.1" y="112.2" class="st0" width="16" height="15"/>
	</g>
</g>
<g>
	<g>
		<rect x="72.1" y="96.2" class="st0" width="16" height="15"/>
	</g>
</g>
<g>
	<g>
		<rect x="136.3" y="304.6" class="st0" width="16" height="15"/>
	</g>
</g>
<g>
	<g>
		<rect x="136.3" y="248.5" class="st0" width="16" height="15"/>
	</g>
</g>
<g>
	<g>
		<rect x="136.3" y="360.7" class="st0" width="16" height="15"/>
	</g>
</g>
</svg>
