<?xml version="1.0" encoding="utf-8"?>
<!-- Generator: Adobe Illustrator 23.0.6, SVG Export Plug-In . SVG Version: 6.00 Build 0)  -->
<svg version="1.1" id="Capa_1" xmlns="http://www.w3.org/2000/svg" xmlns:xlink="http://www.w3.org/1999/xlink" x="0px" y="0px"
	 viewBox="0 0 223.9 512" style="enable-background:new 0 0 223.9 512;" xml:space="preserve">
<style type="text/css">
	.st0{fill:#FFFFFF;}
</style>
<g>
	<g>
		<path class="st0" d="M223.8,339.7c0-11.4-5.3-21.5-13.7-28.1c8.4-6.5,13.8-16.7,13.8-28.1c0-12-6.2-22.6-15.3-29.1
			c9.2-7.3,14.9-18.5,14.9-31.1v-74.7l-71.9-93.6h15.8V0H56.1v55.1h16.8L0,148.7v74.7c0,12.6,6.2,23.8,15.3,31.1
			c-9.1,6.4-15,17.1-15,29.1c0,11.4,5.5,21.5,13.8,28.1c-8.4,6.5-13.7,16.7-13.7,28.1c0,12,5.7,22.6,14.9,29.1
			C6.1,376,0,387.2,0,399.8v64.1C0,485.7,18.3,504,40.1,504h40.1v-0.7c6.7,5.1,15,8.7,24,8.7h16c9,0,17.4-3.6,24-8.7v0.7h40.1
			c21.8,0,39.1-18.3,39.1-40.1v-64.1c0-12.6-5.7-23.8-14.8-31.1C217.7,362.3,223.8,351.7,223.8,339.7z M71.1,40.1V15h81.2v25H71.1z
			 M91.9,55.1h40.7l68.6,89.2H23.3L91.9,55.1z M188.4,319.6c11.3,0,20.5,9.2,20.5,20.5s-9.2,20.5-20.5,20.5h-20v15h16
			c13.5,0,24,10.5,24,24v64.1c0,13.5-10.5,25-24,25h-28.2c2.3-6,3.6-11.1,3.6-17h-15c0,13.5-11,25-24.5,25h-16
			c-13.5,0-24.5-11.5-24.5-25h-15c0,5.9,1.3,11,3.6,17H40.1c-13.5,0-25-11.5-25-25v-64.1c0-13.5,11.5-24,25-24h80.2v-15H36.1
			c-11.3,0-20.5-9.2-20.5-20.5s9.2-20.5,20.5-20.5h84.2v-15H36.1c-11.3,0-20.5-9.2-20.5-20.5s9.2-20.5,20.5-20.5h84.2v-15H40.1
			c-13.5,0-25-11.5-25-25v-64.1h193.4v64.1c0,13.5-10.5,25-24,25h-16v15h20c11.3,0,20.5,9.2,20.5,20.5s-9.2,20.5-20.5,20.5h-20v15
			H188.4z"/>
	</g>
</g>
<g>
	<g>
		<rect x="56.1" y="112.2" class="st0" width="16" height="15"/>
	</g>
</g>
<g>
	<g>
		<rect x="72.1" y="96.2" class="st0" width="16" height="15"/>
	</g>
</g>
<g>
	<g>
		<rect x="136.3" y="304.6" class="st0" width="16" height="15"/>
	</g>
</g>
<g>
	<g>
		<rect x="136.3" y="248.5" class="st0" width="16" height="15"/>
	</g>
</g>
<g>
	<g>
		<rect x="136.3" y="360.7" class="st0" width="16" height="15"/>
	</g>
</g>
</svg>
